<svg xmlns="http://www.w3.org/2000/svg" xmlns:xlink="http://www.w3.org/1999/xlink" width="500" zoomAndPan="magnify" viewBox="0 0 375 374.999991" height="500" preserveAspectRatio="xMidYMid meet" version="1.0"><defs><clipPath id="4219385e13"><path d="M 6.203125 39.824219 L 368.453125 39.824219 L 368.453125 335.324219 L 6.203125 335.324219 Z M 6.203125 39.824219 " clip-rule="nonzero"/></clipPath></defs><rect x="-37.5" width="450" fill="#ffffff" y="-37.499999" height="449.999989" fill-opacity="1"/><rect x="-37.5" width="450" fill="#ffffff" y="-37.499999" height="449.999989" fill-opacity="1"/><g clip-path="url(#4219385e13)"><path fill="#c19d52" d="M 269.964844 274.910156 C 267.152344 274.722656 264.347656 274.515625 261.535156 274.347656 C 258.726562 274.207031 255.917969 274.023438 253.105469 273.914062 C 250.292969 273.808594 247.480469 273.652344 244.667969 273.585938 L 240.453125 273.460938 C 239.046875 273.414062 237.644531 273.40625 236.238281 273.382812 C 224.992188 273.195312 213.753906 273.34375 202.539062 273.835938 C 191.320312 274.300781 180.125 275.117188 168.972656 276.269531 L 164.789062 276.703125 C 163.394531 276.851562 162.007812 277.03125 160.613281 277.191406 L 156.441406 277.679688 L 152.277344 278.226562 C 146.742188 278.914062 141.132812 279.859375 135.253906 280.273438 C 132.324219 280.484375 129.328125 280.558594 126.28125 280.386719 C 123.242188 280.210938 120.15625 279.808594 117.101562 278.996094 C 113.96875 278.167969 110.980469 276.910156 108.195312 275.253906 C 105.410156 273.59375 102.816406 271.542969 100.574219 269.039062 C 98.335938 266.546875 96.484375 263.542969 95.34375 260.171875 C 95.203125 259.75 95.058594 259.328125 94.929688 258.902344 L 94.628906 257.589844 C 94.40625 256.71875 94.328125 255.820312 94.226562 254.925781 L 94.15625 254.25 L 94.140625 253.574219 C 94.132812 253.121094 94.125 252.671875 94.128906 252.21875 L 94.21875 250.878906 C 94.238281 250.652344 94.242188 250.425781 94.273438 250.207031 L 94.375 249.542969 C 94.605469 247.765625 95.105469 246.058594 95.699219 244.417969 C 96.015625 243.605469 96.335938 242.792969 96.730469 242.027344 C 97.09375 241.242188 97.527344 240.503906 97.953125 239.765625 C 98.851562 238.320312 99.820312 236.921875 100.917969 235.660156 C 101.449219 235.003906 102.039062 234.414062 102.609375 233.800781 C 102.902344 233.5 103.207031 233.222656 103.507812 232.933594 C 103.8125 232.644531 104.113281 232.355469 104.433594 232.089844 L 105.386719 231.285156 C 105.707031 231.015625 106.046875 230.773438 106.375 230.515625 C 107.027344 229.992188 107.730469 229.546875 108.421875 229.074219 C 109.804688 228.199219 111.207031 227.375 112.648438 226.679688 C 113.363281 226.304688 114.09375 226.003906 114.820312 225.671875 C 115.550781 225.375 116.277344 225.050781 117.011719 224.789062 C 118.480469 224.21875 119.953125 223.757812 121.429688 223.308594 C 124.367188 222.449219 127.300781 221.78125 130.175781 221.222656 C 131.621094 220.941406 133.042969 220.6875 134.457031 220.445312 L 138.695312 219.753906 C 150.007812 217.921875 161.410156 216.609375 172.851562 215.808594 C 195.742188 214.234375 218.808594 214.769531 241.667969 217.355469 L 245.953125 217.855469 C 247.382812 218.007812 248.804688 218.238281 250.230469 218.425781 C 253.078125 218.820312 255.933594 219.210938 258.769531 219.699219 C 261.609375 220.171875 264.449219 220.617188 267.277344 221.179688 L 271.523438 221.984375 C 272.914062 222.234375 274.402344 222.546875 275.9375 222.902344 C 278.996094 223.628906 282.304688 224.5625 285.75 226.324219 C 287.460938 227.207031 289.203125 228.316406 290.839844 229.714844 C 291.246094 230.082031 291.660156 230.421875 292.042969 230.820312 C 292.429688 231.21875 292.816406 231.613281 293.1875 232.027344 C 293.546875 232.457031 293.898438 232.894531 294.246094 233.332031 L 295.066406 234.507812 C 295.617188 235.261719 296.121094 236.171875 296.621094 237.046875 C 296.75 237.257812 296.867188 237.492188 296.976562 237.734375 L 297.316406 238.464844 C 297.539062 238.949219 297.769531 239.417969 297.949219 239.960938 C 298.140625 240.484375 298.320312 241.011719 298.496094 241.542969 C 298.640625 242.097656 298.773438 242.660156 298.90625 243.21875 C 299.050781 243.773438 299.101562 244.355469 299.1875 244.929688 L 299.292969 245.785156 L 299.335938 246.640625 C 299.402344 247.796875 299.335938 248.886719 299.25 249.964844 L 299.050781 251.511719 C 298.972656 252.019531 298.871094 252.476562 298.773438 252.960938 C 298.378906 254.824219 297.871094 256.507812 297.378906 257.96875 C 296.890625 259.441406 296.398438 260.808594 295.964844 262.066406 C 295.523438 263.351562 295.144531 264.542969 294.792969 265.71875 C 294.117188 268.0625 293.640625 270.296875 293.386719 272.566406 C 292.875 277.085938 293.1875 281.761719 294.195312 286.5625 L 294.589844 288.363281 L 295.058594 290.167969 C 295.347656 291.371094 295.769531 292.578125 296.125 293.785156 L 296.472656 294.914062 C 296.609375 295.347656 296.730469 295.789062 296.847656 296.238281 C 296.972656 296.675781 297.082031 297.132812 297.183594 297.589844 C 297.292969 298.039062 297.378906 298.511719 297.46875 298.976562 C 297.8125 300.855469 298.023438 302.832031 297.996094 304.949219 C 297.964844 307.0625 297.691406 309.332031 296.972656 311.675781 C 296.800781 312.257812 296.570312 312.851562 296.351562 313.429688 C 296.105469 314.011719 295.824219 314.59375 295.542969 315.171875 C 295.226562 315.742188 294.898438 316.308594 294.550781 316.859375 C 294.175781 317.402344 293.785156 317.953125 293.390625 318.453125 C 291.847656 320.355469 290.023438 321.933594 288.132812 323.179688 C 286.230469 324.425781 284.246094 325.351562 282.261719 326.039062 C 280.277344 326.71875 278.277344 327.160156 276.273438 327.417969 C 275.769531 327.476562 275.269531 327.53125 274.761719 327.566406 C 274.261719 327.609375 273.757812 327.632812 273.253906 327.644531 L 272.546875 327.660156 L 272.019531 327.667969 L 270.960938 327.679688 L 262.5 327.773438 L 245.605469 327.96875 C 234.34375 328.121094 223.109375 328.246094 211.898438 328.496094 C 189.472656 329 167.152344 329.929688 144.878906 331.640625 C 133.746094 332.5 122.617188 333.433594 111.5 334.601562 L 109.414062 334.808594 L 108.855469 334.863281 L 108.050781 334.925781 C 107.519531 334.960938 106.980469 335.003906 106.453125 335.003906 C 104.332031 335.066406 102.25 334.894531 100.164062 334.546875 C 99.125 334.390625 98.082031 334.132812 97.046875 333.875 C 96.007812 333.566406 94.96875 333.257812 93.929688 332.839844 L 93.15625 332.535156 L 92.378906 332.179688 C 91.859375 331.925781 91.347656 331.714844 90.832031 331.417969 C 90.3125 331.128906 89.800781 330.835938 89.292969 330.539062 C 88.78125 330.207031 88.273438 329.863281 87.769531 329.515625 C 85.769531 328.054688 83.84375 326.210938 82.246094 323.957031 C 81.855469 323.382812 81.476562 322.792969 81.113281 322.203125 C 80.78125 321.582031 80.46875 320.953125 80.164062 320.316406 C 80.007812 320.007812 79.867188 319.664062 79.730469 319.316406 C 79.601562 318.96875 79.460938 318.617188 79.355469 318.277344 C 79.246094 317.933594 79.128906 317.585938 79.035156 317.242188 L 78.777344 316.21875 C 78.167969 313.519531 78.105469 311.089844 78.191406 309.066406 C 78.277344 307.011719 78.507812 305.304688 78.695312 303.851562 L 80.890625 287.082031 L 81.988281 278.695312 C 82.34375 275.925781 82.746094 273.023438 83.035156 270.496094 C 83.332031 267.921875 83.527344 265.464844 83.558594 263.179688 C 83.597656 260.902344 83.46875 258.796875 83.136719 257.019531 C 82.808594 255.234375 82.296875 253.824219 81.679688 252.773438 C 81.554688 252.484375 81.351562 252.28125 81.195312 252.035156 L 81.078125 251.855469 C 81.042969 251.792969 80.976562 251.753906 80.933594 251.695312 C 80.835938 251.597656 80.742188 251.488281 80.65625 251.378906 C 80.289062 250.945312 79.84375 250.578125 79.34375 250.222656 C 78.34375 249.511719 76.949219 248.851562 75.085938 248.292969 C 73.226562 247.730469 70.953125 247.28125 68.421875 246.890625 C 65.878906 246.488281 63.078125 246.148438 60.027344 245.664062 C 58.503906 245.417969 56.914062 245.144531 55.265625 244.789062 C 54.4375 244.613281 53.601562 244.425781 52.722656 244.179688 L 51.425781 243.828125 C 50.992188 243.714844 50.558594 243.59375 50.132812 243.445312 C 43.261719 241.332031 36.941406 237.8125 31.476562 233.46875 C 28.742188 231.292969 26.210938 228.910156 23.898438 226.351562 C 21.597656 223.789062 19.507812 221.066406 17.636719 218.21875 C 15.761719 215.371094 14.105469 212.394531 12.664062 209.316406 C 11.234375 206.234375 10.03125 203.050781 9.058594 199.789062 C 8.082031 196.527344 7.351562 193.183594 6.863281 189.792969 C 6.378906 186.394531 6.171875 182.945312 6.230469 179.472656 C 6.285156 176.015625 6.644531 172.464844 7.238281 169.140625 C 7.832031 165.773438 8.699219 162.476562 9.765625 159.261719 C 11.910156 152.84375 14.898438 146.769531 18.578125 141.246094 C 25.921875 130.167969 35.757812 121.117188 47.003906 114.472656 C 49.828125 112.820312 52.734375 111.3125 55.730469 109.972656 C 57.226562 109.292969 58.746094 108.675781 60.28125 108.082031 L 62.597656 107.230469 L 64.9375 106.484375 C 71.183594 104.496094 77.613281 103.210938 84.121094 102.625 C 90.632812 102.03125 97.21875 102.175781 103.757812 103.058594 C 110.289062 103.945312 116.773438 105.597656 123.007812 108.078125 C 124.582031 108.648438 126.09375 109.398438 127.625 110.09375 C 129.171875 110.765625 130.632812 111.628906 132.125 112.429688 L 133.234375 113.035156 C 133.605469 113.238281 133.957031 113.484375 134.320312 113.703125 L 136.46875 115.070312 L 137.542969 115.757812 C 137.898438 115.992188 138.25 116.253906 138.597656 116.5 L 139.652344 117.25 L 140.675781 118.039062 C 146.136719 122.234375 150.90625 127.199219 154.898438 132.699219 C 158.890625 138.199219 162.121094 144.242188 164.441406 150.683594 C 166.765625 157.121094 168.183594 163.964844 168.449219 170.976562 C 168.585938 174.476562 168.429688 178.019531 167.960938 181.542969 C 167.847656 182.421875 167.695312 183.300781 167.554688 184.175781 C 167.398438 185.054688 167.207031 185.925781 167.027344 186.800781 C 166.988281 186.996094 166.917969 187.28125 166.855469 187.542969 C 166.789062 187.804688 166.726562 188.066406 166.648438 188.335938 L 166.425781 189.144531 L 166.164062 189.96875 C 165.796875 191.085938 165.367188 192.226562 164.78125 193.453125 C 164.191406 194.675781 163.476562 195.960938 162.488281 197.304688 C 161.484375 198.65625 160.199219 200.070312 158.511719 201.363281 C 156.851562 202.652344 154.679688 203.765625 152.453125 204.382812 C 150.222656 205.03125 147.8125 205.1875 145.726562 204.96875 C 143.621094 204.761719 141.832031 204.238281 140.34375 203.660156 C 138.847656 203.074219 137.628906 202.421875 136.570312 201.789062 C 135.515625 201.15625 134.621094 200.53125 133.835938 199.953125 L 131.785156 198.367188 C 126.410156 194.0625 121.730469 189.007812 117.835938 183.492188 C 113.949219 177.960938 110.839844 171.972656 108.5 165.738281 C 106.148438 159.503906 104.613281 152.996094 103.839844 146.398438 C 103.0625 139.796875 103.101562 133.082031 103.996094 126.433594 C 105.871094 113.066406 111.0625 100.53125 118.578125 89.828125 C 126.121094 79.144531 135.8125 70.175781 146.910156 63.453125 L 151.144531 61.050781 C 152.585938 60.300781 154.054688 59.601562 155.511719 58.878906 C 158.46875 57.527344 161.488281 56.253906 164.546875 55.230469 C 170.65625 53.121094 176.945312 51.636719 183.277344 50.734375 L 186.847656 50.292969 C 187.242188 50.242188 187.640625 50.195312 188.039062 50.171875 L 192.808594 49.824219 L 197.574219 49.71875 C 197.976562 49.699219 198.371094 49.707031 198.765625 49.722656 L 199.957031 49.75 L 202.335938 49.8125 C 208.671875 50.074219 214.960938 50.875 221.132812 52.179688 C 233.476562 54.769531 245.367188 59.417969 256.222656 65.980469 C 261.640625 69.257812 266.796875 73.023438 271.574219 77.265625 C 276.351562 81.507812 280.769531 86.230469 284.664062 91.429688 C 288.558594 96.617188 291.929688 102.292969 294.574219 108.34375 C 294.902344 109.105469 295.253906 109.851562 295.558594 110.617188 L 296.421875 112.953125 C 296.707031 113.730469 297 114.503906 297.269531 115.292969 C 297.519531 116.101562 297.777344 116.90625 298.015625 117.714844 C 298.960938 120.957031 299.667969 124.25 300.144531 127.5625 C 301.105469 134.191406 301.167969 140.90625 300.347656 147.539062 C 299.527344 154.167969 297.8125 160.726562 295.136719 166.972656 C 292.457031 173.214844 288.792969 179.148438 284.144531 184.347656 C 283.578125 185.007812 282.957031 185.628906 282.355469 186.257812 C 281.757812 186.894531 281.117188 187.492188 280.480469 188.09375 C 279.851562 188.699219 279.183594 189.269531 278.519531 189.839844 C 277.886719 190.394531 277.113281 191.023438 276.355469 191.59375 C 273.3125 193.890625 270.0625 195.757812 266.566406 197.222656 C 263.070312 198.679688 259.3125 199.757812 255.195312 200.183594 C 253.140625 200.394531 250.992188 200.433594 248.769531 200.226562 C 246.554688 200.019531 244.257812 199.554688 241.988281 198.765625 C 239.71875 197.976562 237.484375 196.851562 235.464844 195.425781 C 234.453125 194.710938 233.5 193.925781 232.609375 193.089844 C 232.15625 192.675781 231.734375 192.214844 231.304688 191.769531 C 230.871094 191.320312 230.484375 190.84375 230.101562 190.363281 C 228.570312 188.441406 227.320312 186.351562 226.421875 184.226562 C 225.507812 182.101562 224.875 179.941406 224.46875 177.804688 C 223.699219 173.53125 223.761719 169.347656 224.535156 165.304688 C 224.710938 164.292969 224.976562 163.277344 225.234375 162.296875 L 225.664062 160.894531 C 225.8125 160.429688 225.980469 159.980469 226.140625 159.523438 C 226.796875 157.71875 227.5625 156 228.390625 154.378906 C 230.070312 151.148438 231.984375 148.285156 233.933594 145.699219 C 235.894531 143.089844 237.851562 140.800781 239.804688 138.558594 C 241.78125 136.3125 243.796875 134.082031 245.917969 131.917969 C 246.953125 130.824219 248.054688 129.769531 249.125 128.699219 C 250.238281 127.652344 251.316406 126.585938 252.46875 125.566406 C 254.71875 123.496094 257.089844 121.515625 259.519531 119.597656 C 261.957031 117.683594 264.515625 115.878906 267.128906 114.148438 C 272.414062 110.734375 278.007812 107.714844 284.0625 105.386719 C 285.554688 104.769531 287.101562 104.285156 288.621094 103.753906 L 290.949219 103.058594 C 291.335938 102.945312 291.722656 102.824219 292.109375 102.71875 L 293.292969 102.421875 C 296.421875 101.589844 299.632812 101.023438 302.871094 100.589844 L 305.3125 100.324219 C 306.125 100.230469 306.949219 100.207031 307.769531 100.148438 C 309.40625 100.015625 311.066406 100.042969 312.714844 100.019531 C 313.542969 100.039062 314.375 100.078125 315.199219 100.109375 C 315.617188 100.132812 316.03125 100.144531 316.441406 100.167969 L 317.6875 100.28125 C 318.519531 100.363281 319.351562 100.421875 320.179688 100.535156 L 322.667969 100.902344 C 325.972656 101.480469 329.277344 102.238281 332.480469 103.378906 L 333.6875 103.785156 C 334.089844 103.929688 334.492188 104.105469 334.894531 104.265625 L 337.292969 105.257812 L 339.617188 106.394531 C 340 106.585938 340.390625 106.765625 340.765625 106.980469 L 341.882812 107.617188 C 344.894531 109.28125 347.667969 111.304688 350.304688 113.484375 L 352.230469 115.175781 C 352.867188 115.746094 353.457031 116.375 354.066406 116.976562 L 354.96875 117.886719 C 355.277344 118.191406 355.546875 118.527344 355.832031 118.84375 L 357.523438 120.792969 C 358.058594 121.46875 358.574219 122.160156 359.097656 122.847656 C 359.351562 123.195312 359.621094 123.53125 359.867188 123.886719 L 360.582031 124.972656 C 361.054688 125.710938 361.546875 126.421875 361.980469 127.171875 L 363.253906 129.464844 C 364.84375 132.578125 366.238281 135.84375 367.113281 139.308594 L 367.46875 140.597656 C 367.5625 141.03125 367.644531 141.476562 367.730469 141.914062 C 367.898438 142.792969 368.082031 143.671875 368.222656 144.558594 C 368.410156 146.34375 368.652344 148.148438 368.671875 149.914062 C 368.769531 153.464844 368.410156 157.003906 367.734375 160.421875 C 367.050781 163.835938 366 167.113281 364.726562 170.230469 C 363.4375 173.339844 361.894531 176.269531 360.199219 179.050781 C 356.785156 184.59375 352.738281 189.488281 348.363281 193.894531 C 346.175781 196.105469 343.894531 198.183594 341.550781 200.164062 C 340.964844 200.660156 340.371094 201.136719 339.78125 201.625 C 339.476562 201.871094 339.199219 202.097656 338.890625 202.332031 L 337.953125 203.03125 L 334.21875 205.8125 C 329.101562 209.328125 323.679688 212.382812 318.03125 214.929688 C 312.34375 217.386719 306.445312 219.324219 300.429688 220.738281 L 295.886719 221.644531 C 295.507812 221.710938 295.132812 221.800781 294.746094 221.855469 L 291.308594 222.320312 L 289.015625 222.625 L 286.707031 222.796875 L 284.394531 222.957031 C 283.628906 223.011719 282.859375 223.078125 282.089844 223.066406 L 277.464844 223.105469 C 277.082031 223.117188 276.695312 223.097656 276.308594 223.074219 L 275.15625 223.011719 L 272.847656 222.890625 C 272.082031 222.832031 271.3125 222.824219 270.542969 222.734375 L 268.25 222.464844 L 265.960938 222.195312 C 265.578125 222.144531 265.195312 222.109375 264.8125 222.050781 L 263.679688 221.847656 L 259.140625 221.011719 C 257.644531 220.664062 256.15625 220.277344 254.667969 219.90625 L 253.546875 219.625 L 252.988281 219.480469 L 252.441406 219.304688 L 250.242188 218.605469 L 248.050781 217.902344 C 247.695312 217.785156 247.304688 217.671875 246.972656 217.542969 L 245.945312 217.171875 C 240.484375 215.210938 235.023438 212.988281 229.648438 210.457031 C 226.964844 209.160156 224.296875 207.816406 221.675781 206.332031 C 219.0625 204.839844 216.464844 203.292969 213.960938 201.5625 L 213.019531 200.921875 L 212.089844 200.253906 C 211.472656 199.808594 210.847656 199.371094 210.238281 198.914062 C 209.03125 197.972656 207.808594 197.058594 206.644531 196.058594 C 205.453125 195.097656 204.324219 194.058594 203.179688 193.03125 C 202.609375 192.519531 202.070312 191.96875 201.511719 191.433594 C 200.960938 190.898438 200.402344 190.367188 199.882812 189.800781 L 198.292969 188.121094 C 197.773438 187.554688 197.277344 186.96875 196.769531 186.390625 L 196.007812 185.519531 C 195.761719 185.230469 195.527344 184.925781 195.28125 184.628906 L 193.839844 182.832031 L 192.464844 180.984375 L 191.78125 180.0625 L 191.136719 179.113281 L 189.84375 177.210938 L 188.625 175.261719 C 188.425781 174.9375 188.21875 174.617188 188.023438 174.285156 L 187.457031 173.285156 C 187.078125 172.621094 186.6875 171.960938 186.328125 171.289062 C 185.628906 169.925781 184.894531 168.585938 184.261719 167.191406 C 182.933594 164.4375 181.824219 161.582031 180.808594 158.703125 C 176.824219 147.164062 175.371094 134.660156 177.140625 122.457031 C 177.332031 120.929688 177.660156 119.421875 177.941406 117.902344 C 178.308594 116.398438 178.628906 114.890625 179.097656 113.40625 C 179.5 111.914062 180.035156 110.449219 180.546875 108.988281 C 180.820312 108.261719 181.125 107.546875 181.417969 106.824219 C 181.566406 106.464844 181.710938 106.105469 181.867188 105.746094 L 182.367188 104.6875 C 183.65625 101.84375 185.226562 99.136719 187.007812 96.546875 C 188.773438 93.921875 190.851562 91.550781 193.050781 89.316406 L 194.738281 87.679688 C 195.324219 87.160156 195.925781 86.660156 196.515625 86.152344 C 196.820312 85.898438 197.109375 85.636719 197.421875 85.394531 L 198.355469 84.6875 L 199.289062 83.984375 C 199.605469 83.75 199.914062 83.515625 200.246094 83.300781 L 202.203125 82.007812 C 202.855469 81.578125 203.554688 81.210938 204.222656 80.8125 L 205.242188 80.230469 C 205.585938 80.046875 205.941406 79.882812 206.292969 79.703125 C 207 79.359375 207.691406 79 208.40625 78.679688 C 211.28125 77.410156 214.277344 76.417969 217.347656 75.6875 C 220.441406 75.03125 223.597656 74.65625 226.773438 74.628906 C 227.570312 74.640625 228.363281 74.6875 229.160156 74.714844 C 229.558594 74.742188 229.941406 74.746094 230.359375 74.78125 C 230.777344 74.816406 231.199219 74.863281 231.632812 74.925781 C 233.347656 75.164062 235.183594 75.570312 237.105469 76.515625 C 238.066406 76.996094 239.03125 77.628906 239.917969 78.449219 C 240.804688 79.28125 241.5625 80.308594 242.113281 81.40625 C 242.242188 81.679688 242.363281 81.960938 242.480469 82.234375 C 242.597656 82.519531 242.671875 82.796875 242.765625 83.074219 C 242.847656 83.355469 242.929688 83.628906 242.992188 83.949219 C 243.054688 84.253906 243.117188 84.558594 243.144531 84.890625 C 243.289062 86.183594 243.1875 87.6875 242.535156 89.203125 C 242.1875 89.953125 241.738281 90.695312 241.125 91.324219 C 240.53125 91.964844 239.804688 92.46875 239.054688 92.847656 C 237.542969 93.578125 236.019531 93.710938 234.75 93.59375 C 234.457031 93.578125 234.070312 93.523438 233.667969 93.4375 C 233.261719 93.34375 232.859375 93.222656 232.457031 93.054688 C 231.652344 92.722656 230.882812 92.210938 230.265625 91.617188 C 229.648438 91.023438 229.183594 90.359375 228.84375 89.710938 C 228.503906 89.066406 228.289062 88.445312 228.128906 87.847656 C 227.816406 86.65625 227.761719 85.578125 227.792969 84.554688 C 227.835938 83.53125 227.984375 82.558594 228.234375 81.605469 C 228.480469 80.648438 228.820312 79.714844 229.304688 78.769531 C 229.710938 78.046875 230.078125 77.347656 230.527344 76.671875 C 230.945312 75.984375 231.417969 75.332031 231.878906 74.675781 C 232.371094 74.046875 232.851562 73.402344 233.378906 72.804688 C 233.890625 72.191406 234.449219 71.625 234.996094 71.042969 C 235.566406 70.492188 236.128906 69.933594 236.726562 69.421875 C 237.910156 68.375 239.152344 67.417969 240.441406 66.550781 C 241.730469 65.675781 243.054688 64.875 244.417969 64.167969 C 249.863281 61.308594 255.703125 59.632812 261.570312 58.75 C 264.503906 58.308594 267.457031 58.074219 270.402344 58.019531 C 271.890625 57.992188 273.332031 58.039062 274.785156 58.066406 C 276.234375 58.140625 277.683594 58.1875 279.117188 58.308594 C 281.992188 58.5 284.835938 58.796875 287.65625 59.121094 C 290.480469 59.449219 293.28125 59.804688 296.070312 60.15625 C 301.644531 60.851562 307.171875 61.46875 312.691406 61.582031 L 314.757812 61.617188 L 316.820312 61.570312 C 318.195312 61.554688 319.542969 61.460938 320.90625 61.324219 C 323.621094 61.054688 326.324219 60.578125 328.972656 59.902344 C 334.261719 58.546875 339.378906 56.351562 343.792969 53.132812 C 344.886719 52.324219 345.945312 51.464844 346.9375 50.53125 C 347.921875 49.589844 348.851562 48.589844 349.707031 47.527344 C 350.550781 46.457031 351.324219 45.328125 352.011719 44.148438 C 352.675781 42.957031 353.261719 41.714844 353.761719 40.433594 L 353.773438 40.398438 C 353.910156 40.039062 354.3125 39.863281 354.671875 40.003906 C 355.023438 40.140625 355.203125 40.53125 355.074219 40.886719 C 354.59375 42.25 354.019531 43.582031 353.351562 44.863281 C 352.660156 46.132812 351.886719 47.355469 351.027344 48.519531 C 350.15625 49.671875 349.199219 50.761719 348.191406 51.785156 C 347.171875 52.804688 346.085938 53.75 344.953125 54.640625 C 340.398438 58.167969 335.101562 60.597656 329.617188 62.171875 C 326.867188 62.953125 324.0625 63.527344 321.230469 63.886719 C 319.816406 64.066406 318.386719 64.203125 316.964844 64.265625 L 314.832031 64.363281 L 312.703125 64.390625 C 307.019531 64.429688 301.363281 63.949219 295.75 63.402344 C 290.132812 62.863281 284.539062 62.230469 278.9375 61.976562 C 277.539062 61.894531 276.140625 61.882812 274.742188 61.84375 C 273.347656 61.855469 271.945312 61.839844 270.554688 61.894531 C 267.773438 62.015625 265.003906 62.296875 262.261719 62.773438 C 256.789062 63.730469 251.417969 65.410156 246.578125 68.082031 C 245.367188 68.746094 244.203125 69.476562 243.078125 70.277344 C 241.953125 71.070312 240.882812 71.929688 239.875 72.863281 C 239.359375 73.3125 238.886719 73.8125 238.402344 74.296875 C 237.941406 74.804688 237.46875 75.300781 237.046875 75.835938 C 236.597656 76.355469 236.203125 76.914062 235.792969 77.457031 C 235.414062 78.023438 235.015625 78.582031 234.675781 79.175781 C 234.308594 79.75 234.007812 80.367188 233.679688 80.964844 C 233.402344 81.523438 233.1875 82.136719 233.035156 82.761719 C 232.738281 84.007812 232.671875 85.355469 232.988281 86.511719 C 233.140625 87.082031 233.402344 87.589844 233.765625 87.925781 C 234.128906 88.261719 234.5625 88.449219 235.136719 88.472656 C 235.714844 88.519531 236.273438 88.4375 236.730469 88.210938 C 237.179688 87.984375 237.519531 87.613281 237.726562 87.144531 C 237.921875 86.671875 237.976562 86.101562 237.90625 85.527344 C 237.894531 85.382812 237.863281 85.234375 237.828125 85.09375 C 237.804688 84.945312 237.753906 84.800781 237.707031 84.65625 C 237.652344 84.511719 237.621094 84.359375 237.558594 84.226562 L 237.371094 83.8125 C 237.085938 83.285156 236.730469 82.804688 236.292969 82.390625 C 235.835938 81.992188 235.316406 81.652344 234.753906 81.371094 C 233.605469 80.828125 232.304688 80.53125 230.96875 80.371094 C 230.304688 80.277344 229.621094 80.25 228.933594 80.242188 C 228.25 80.230469 227.5625 80.199219 226.875 80.199219 C 224.125 80.273438 221.386719 80.648438 218.703125 81.269531 C 216.035156 81.960938 213.425781 82.871094 210.925781 84.035156 C 210.300781 84.324219 209.695312 84.660156 209.078125 84.96875 C 208.773438 85.132812 208.464844 85.28125 208.164062 85.449219 L 207.273438 85.984375 C 206.683594 86.347656 206.078125 86.675781 205.511719 87.066406 L 203.800781 88.242188 C 203.511719 88.429688 203.242188 88.644531 202.972656 88.855469 L 201.34375 90.132812 C 201.070312 90.351562 200.824219 90.589844 200.558594 90.8125 C 200.050781 91.277344 199.527344 91.726562 199.015625 92.195312 L 197.550781 93.664062 C 195.65625 95.664062 193.863281 97.78125 192.371094 100.101562 C 190.851562 102.410156 189.488281 104.828125 188.390625 107.367188 L 187.964844 108.3125 C 187.832031 108.632812 187.707031 108.957031 187.582031 109.28125 C 187.335938 109.925781 187.066406 110.566406 186.839844 111.21875 C 186.40625 112.53125 185.949219 113.84375 185.613281 115.1875 C 185.214844 116.511719 184.957031 117.878906 184.648438 119.230469 C 184.417969 120.59375 184.140625 121.957031 183.996094 123.335938 C 182.589844 134.359375 184.085938 145.691406 187.890625 156.132812 C 188.867188 158.738281 189.917969 161.316406 191.167969 163.800781 C 191.753906 165.0625 192.445312 166.269531 193.097656 167.5 C 193.4375 168.105469 193.796875 168.699219 194.148438 169.300781 L 194.679688 170.203125 C 194.859375 170.496094 195.050781 170.785156 195.238281 171.082031 L 196.371094 172.835938 L 197.5625 174.542969 L 198.164062 175.394531 L 198.792969 176.222656 L 200.0625 177.882812 L 201.394531 179.488281 C 201.621094 179.75 201.835938 180.027344 202.0625 180.285156 L 202.757812 181.0625 C 203.226562 181.574219 203.679688 182.101562 204.160156 182.609375 L 205.613281 184.097656 C 206.09375 184.605469 206.601562 185.074219 207.109375 185.550781 C 207.621094 186.023438 208.113281 186.515625 208.636719 186.976562 C 209.683594 187.886719 210.714844 188.8125 211.816406 189.671875 C 212.882812 190.5625 214.011719 191.382812 215.121094 192.214844 C 215.683594 192.632812 216.261719 193.019531 216.828125 193.417969 L 217.683594 194.019531 L 218.558594 194.589844 C 220.871094 196.144531 223.292969 197.539062 225.734375 198.886719 C 228.183594 200.222656 230.699219 201.445312 233.234375 202.625 C 238.328125 204.933594 243.554688 206.964844 248.863281 208.796875 C 250.1875 209.285156 251.523438 209.648438 252.851562 210.066406 L 254.851562 210.679688 L 255.34375 210.832031 L 255.855469 210.957031 L 256.871094 211.195312 C 258.226562 211.511719 259.578125 211.847656 260.9375 212.144531 L 265.054688 212.84375 L 266.082031 213.023438 C 266.425781 213.074219 266.777344 213.101562 267.121094 213.136719 L 271.273438 213.574219 C 271.964844 213.648438 272.664062 213.648438 273.359375 213.683594 L 276.488281 213.816406 C 276.835938 213.835938 277.183594 213.847656 277.53125 213.832031 L 281.707031 213.742188 C 282.402344 213.746094 283.097656 213.679688 283.789062 213.621094 L 285.871094 213.449219 L 287.953125 213.273438 L 290.015625 212.96875 L 292.082031 212.660156 L 293.113281 212.507812 C 293.457031 212.460938 293.796875 212.375 294.136719 212.304688 L 298.222656 211.441406 C 303.625 210.097656 308.902344 208.285156 313.992188 206.019531 C 319.035156 203.664062 323.863281 200.863281 328.425781 197.671875 C 330.621094 195.96875 332.890625 194.347656 334.984375 192.496094 C 337.09375 190.679688 339.136719 188.777344 341.070312 186.773438 C 344.949219 182.789062 348.449219 178.429688 351.304688 173.6875 C 352.722656 171.3125 353.980469 168.847656 355.015625 166.292969 C 356.023438 163.738281 356.839844 161.101562 357.355469 158.410156 C 358.375 153.039062 358.273438 147.4375 356.742188 142.191406 C 356.058594 139.542969 354.933594 137.027344 353.675781 134.597656 L 352.667969 132.8125 C 352.320312 132.222656 351.914062 131.664062 351.542969 131.085938 L 350.976562 130.230469 C 350.773438 129.953125 350.558594 129.6875 350.351562 129.414062 L 349.089844 127.78125 L 347.726562 126.246094 C 347.492188 125.988281 347.277344 125.71875 347.03125 125.480469 L 346.300781 124.757812 C 345.804688 124.28125 345.335938 123.777344 344.816406 123.328125 L 343.261719 121.976562 C 341.121094 120.25 338.890625 118.632812 336.464844 117.332031 L 335.570312 116.824219 C 335.269531 116.65625 334.953125 116.519531 334.644531 116.367188 L 332.792969 115.46875 L 330.882812 114.707031 C 330.5625 114.582031 330.25 114.441406 329.921875 114.332031 L 328.941406 114.011719 C 326.34375 113.101562 323.640625 112.511719 320.925781 112.058594 L 318.875 111.769531 C 318.191406 111.683594 317.503906 111.644531 316.820312 111.582031 L 315.789062 111.492188 C 315.441406 111.472656 315.097656 111.46875 314.75 111.457031 L 312.683594 111.394531 C 311.300781 111.433594 309.917969 111.414062 308.539062 111.542969 C 307.847656 111.597656 307.15625 111.617188 306.46875 111.707031 L 304.410156 111.949219 C 301.671875 112.339844 298.941406 112.835938 296.269531 113.578125 L 295.265625 113.839844 C 294.929688 113.933594 294.605469 114.042969 294.273438 114.144531 L 292.28125 114.75 C 290.980469 115.226562 289.65625 115.644531 288.378906 116.1875 C 283.222656 118.21875 278.324219 120.910156 273.675781 123.96875 C 264.402344 130.148438 256.28125 137.96875 248.972656 146.4375 C 245.328125 150.683594 241.78125 155.027344 239.300781 159.902344 C 238.683594 161.117188 238.140625 162.367188 237.6875 163.636719 C 237.21875 164.914062 236.863281 166.210938 236.621094 167.523438 C 236.128906 170.152344 236.125 172.875 236.601562 175.484375 C 237.121094 178.074219 238.136719 180.574219 239.785156 182.582031 C 241.390625 184.617188 243.601562 186.136719 246.058594 186.976562 C 248.523438 187.820312 251.222656 188.007812 253.878906 187.722656 C 256.539062 187.433594 259.171875 186.6875 261.671875 185.628906 C 264.164062 184.566406 266.53125 183.1875 268.6875 181.539062 C 270.820312 179.863281 272.835938 177.953125 274.65625 175.902344 C 278.296875 171.792969 281.21875 167.042969 283.363281 161.96875 C 287.65625 151.800781 288.9375 140.402344 287.3125 129.480469 C 286.90625 126.75 286.308594 124.046875 285.527344 121.402344 L 284.90625 119.429688 C 284.679688 118.773438 284.421875 118.128906 284.1875 117.484375 L 283.460938 115.542969 C 283.207031 114.898438 282.90625 114.273438 282.625 113.640625 C 280.382812 108.582031 277.519531 103.804688 274.171875 99.382812 C 267.464844 90.542969 258.890625 83.15625 249.359375 77.429688 C 239.828125 71.699219 229.296875 67.621094 218.394531 65.371094 C 212.949219 64.242188 207.410156 63.554688 201.851562 63.335938 L 199.769531 63.289062 L 198.722656 63.265625 C 198.378906 63.25 198.03125 63.25 197.683594 63.265625 L 193.515625 63.375 L 189.363281 63.6875 C 189.015625 63.710938 188.667969 63.75 188.324219 63.796875 L 187.292969 63.929688 L 185.222656 64.195312 C 174.234375 65.785156 163.527344 69.414062 154.042969 75.183594 C 144.582031 80.96875 136.277344 88.664062 129.902344 97.726562 C 123.542969 106.796875 119.265625 117.328125 117.738281 128.257812 C 117.007812 133.726562 116.976562 139.296875 117.632812 144.785156 C 118.289062 150.269531 119.566406 155.691406 121.527344 160.855469 C 123.476562 166.023438 126.046875 170.960938 129.222656 175.46875 C 132.410156 179.964844 136.199219 184.03125 140.492188 187.464844 L 142.128906 188.726562 C 142.671875 189.125 143.214844 189.5 143.769531 189.832031 C 144.871094 190.5 146.027344 190.996094 147.121094 191.101562 C 147.664062 191.152344 148.191406 191.117188 148.699219 190.96875 C 149.203125 190.828125 149.683594 190.601562 150.109375 190.257812 C 150.546875 189.925781 150.945312 189.507812 151.300781 189.03125 C 151.65625 188.550781 151.964844 188.007812 152.238281 187.441406 C 152.789062 186.292969 153.183594 185.035156 153.472656 183.730469 C 153.601562 183.058594 153.753906 182.390625 153.878906 181.71875 C 153.980469 181.042969 154.105469 180.371094 154.195312 179.691406 C 154.5625 176.976562 154.683594 174.234375 154.582031 171.492188 C 154.175781 160.507812 150.160156 149.738281 143.707031 140.820312 C 140.472656 136.359375 136.617188 132.347656 132.261719 128.984375 C 127.878906 125.667969 123.03125 122.933594 117.902344 120.890625 C 107.644531 116.789062 96.363281 115.347656 85.335938 116.308594 C 79.820312 116.789062 74.351562 117.863281 69.066406 119.523438 L 67.085938 120.152344 L 65.136719 120.859375 C 63.847656 121.359375 62.558594 121.871094 61.296875 122.441406 C 58.769531 123.566406 56.300781 124.832031 53.90625 126.226562 C 49.125 129.023438 44.652344 132.355469 40.589844 136.117188 C 36.53125 139.886719 32.914062 144.125 29.835938 148.71875 C 26.757812 153.3125 24.292969 158.308594 22.527344 163.535156 C 20.761719 168.753906 19.734375 174.238281 19.628906 179.726562 C 19.574219 182.476562 19.730469 185.230469 20.109375 187.957031 C 20.492188 190.6875 21.078125 193.382812 21.851562 196.027344 C 22.628906 198.671875 23.59375 201.265625 24.738281 203.769531 C 25.898438 206.273438 27.226562 208.695312 28.734375 211.003906 C 30.238281 213.3125 31.90625 215.511719 33.738281 217.566406 C 35.566406 219.621094 37.574219 221.515625 39.710938 223.238281 C 43.992188 226.664062 48.851562 229.398438 54.082031 231.023438 C 54.40625 231.144531 54.738281 231.230469 55.0625 231.320312 L 56.054688 231.589844 C 56.710938 231.78125 57.382812 231.933594 58.054688 232.082031 C 59.402344 232.378906 60.769531 232.625 62.144531 232.855469 C 64.898438 233.304688 67.691406 233.664062 70.503906 234.121094 C 73.308594 234.578125 76.136719 235.125 78.921875 235.984375 C 81.699219 236.847656 84.441406 238.050781 86.871094 239.808594 C 88.078125 240.6875 89.21875 241.679688 90.199219 242.8125 L 90.929688 243.667969 C 91.046875 243.8125 91.179688 243.949219 91.285156 244.105469 L 91.605469 244.570312 C 92.03125 245.1875 92.480469 245.785156 92.8125 246.457031 C 94.296875 249.0625 95.199219 251.929688 95.703125 254.808594 C 96.207031 257.691406 96.332031 260.601562 96.269531 263.476562 C 96.199219 266.351562 95.933594 269.199219 95.589844 272.019531 C 95.242188 274.84375 94.832031 277.621094 94.449219 280.417969 L 93.289062 288.792969 L 90.960938 305.546875 C 90.578125 308.3125 90.246094 311.039062 90.796875 313.519531 C 90.9375 314.136719 91.125 314.722656 91.390625 315.289062 L 91.804688 316.132812 L 92.316406 316.925781 C 93.046875 317.953125 93.964844 318.859375 95.003906 319.625 C 96.035156 320.40625 97.21875 320.992188 98.4375 321.488281 C 99.046875 321.742188 99.683594 321.925781 100.316406 322.128906 C 100.964844 322.28125 101.605469 322.453125 102.265625 322.554688 C 103.578125 322.777344 104.914062 322.902344 106.246094 322.867188 C 106.578125 322.871094 106.910156 322.839844 107.238281 322.816406 C 107.566406 322.800781 107.902344 322.777344 108.257812 322.742188 L 110.367188 322.546875 C 121.597656 321.464844 132.855469 320.585938 144.113281 319.824219 C 166.640625 318.320312 189.210938 317.601562 211.773438 317.316406 C 223.050781 317.179688 234.332031 317.148438 245.609375 317.136719 L 262.519531 317.140625 L 270.976562 317.148438 C 271.671875 317.144531 272.410156 317.15625 273.070312 317.140625 C 273.40625 317.136719 273.734375 317.125 274.070312 317.097656 C 274.402344 317.082031 274.734375 317.039062 275.066406 317.003906 C 276.394531 316.847656 277.703125 316.566406 278.960938 316.148438 C 281.46875 315.304688 283.777344 313.886719 285.410156 311.902344 C 287.03125 309.960938 287.734375 307.359375 287.789062 304.722656 C 287.816406 303.402344 287.691406 302.0625 287.460938 300.734375 C 287.34375 300.074219 287.199219 299.414062 287.03125 298.753906 C 286.945312 298.425781 286.859375 298.097656 286.761719 297.773438 L 286.464844 296.777344 C 286.074219 295.402344 285.625 294.046875 285.308594 292.652344 L 284.796875 290.566406 L 284.367188 288.460938 C 283.261719 282.847656 282.910156 277.019531 283.667969 271.285156 C 284.039062 268.421875 284.695312 265.601562 285.539062 262.859375 C 286.378906 260.117188 287.421875 257.464844 288.332031 254.839844 C 288.792969 253.527344 289.191406 252.21875 289.484375 250.910156 C 289.789062 249.597656 289.941406 248.285156 289.886719 246.992188 C 289.8125 244.402344 288.8125 241.910156 287.300781 239.695312 L 286.734375 238.863281 L 286.125 238.101562 C 285.914062 237.855469 285.683594 237.625 285.457031 237.382812 C 285.238281 237.144531 284.980469 236.945312 284.742188 236.71875 C 283.757812 235.855469 282.640625 235.125 281.460938 234.5 C 279.085938 233.242188 276.449219 232.421875 273.761719 231.753906 C 271.070312 231.089844 268.285156 230.585938 265.539062 230.011719 C 262.789062 229.425781 260.015625 228.957031 257.25 228.460938 C 254.492188 227.941406 251.710938 227.527344 248.933594 227.097656 C 247.542969 226.890625 246.15625 226.644531 244.761719 226.472656 L 240.582031 225.921875 C 218.285156 223.042969 195.726562 222.191406 173.269531 223.355469 C 162.039062 223.933594 150.835938 225.019531 139.707031 226.613281 L 135.535156 227.214844 C 134.144531 227.429688 132.757812 227.652344 131.382812 227.894531 C 128.625 228.375 125.894531 228.953125 123.21875 229.6875 C 120.546875 230.4375 117.917969 231.328125 115.4375 232.519531 C 114.1875 233.089844 112.992188 233.769531 111.824219 234.476562 C 111.253906 234.855469 110.671875 235.207031 110.132812 235.625 C 109.859375 235.832031 109.578125 236.023438 109.3125 236.238281 L 108.523438 236.886719 C 108.253906 237.097656 108.007812 237.332031 107.753906 237.558594 C 107.507812 237.792969 107.25 238.015625 107.007812 238.253906 C 106.535156 238.746094 106.042969 239.21875 105.609375 239.742188 C 104.695312 240.753906 103.898438 241.863281 103.164062 243 C 102.824219 243.582031 102.460938 244.15625 102.175781 244.769531 C 101.851562 245.363281 101.597656 245.992188 101.339844 246.609375 C 100.867188 247.867188 100.457031 249.160156 100.269531 250.484375 L 100.183594 250.980469 C 100.15625 251.144531 100.148438 251.3125 100.132812 251.476562 L 100.042969 252.480469 L 100.042969 253.476562 C 100.042969 253.476562 100.039062 253.976562 100.039062 253.976562 L 100.09375 254.476562 C 100.160156 255.140625 100.191406 255.8125 100.359375 256.460938 L 100.5625 257.441406 C 100.65625 257.765625 100.761719 258.082031 100.863281 258.402344 C 101.679688 260.949219 103.058594 263.332031 104.839844 265.378906 C 108.410156 269.480469 113.300781 272.429688 118.542969 273.941406 C 123.847656 275.445312 129.464844 275.683594 135.027344 275.410156 C 140.609375 275.136719 146.183594 274.332031 151.804688 273.753906 L 156.015625 273.300781 L 160.230469 272.902344 C 161.636719 272.773438 163.039062 272.628906 164.445312 272.515625 L 168.667969 272.175781 C 179.925781 271.296875 191.207031 270.738281 202.5 270.558594 C 225.078125 270.183594 247.675781 271.164062 270.132812 273.515625 C 270.515625 273.554688 270.792969 273.898438 270.75 274.277344 C 270.714844 274.652344 270.386719 274.925781 270.011719 274.902344 L 269.988281 274.902344 Z M 269.964844 274.910156 " fill-opacity="1" fill-rule="nonzero"/></g></svg>