<svg xmlns="http://www.w3.org/2000/svg" xmlns:xlink="http://www.w3.org/1999/xlink" width="500" zoomAndPan="magnify" viewBox="0 0 375 374.999991" height="500" preserveAspectRatio="xMidYMid meet" version="1.0"><defs><clipPath id="2f306c1173"><path d="M 3.179688 47 L 61 47 L 61 59 L 3.179688 59 Z M 3.179688 47 " clip-rule="nonzero"/></clipPath><clipPath id="a2b60348bd"><path d="M 51 32.671875 L 324 32.671875 L 324 342.421875 L 51 342.421875 Z M 51 32.671875 " clip-rule="nonzero"/></clipPath></defs><path fill="#c19d52" d="M 215.152344 198.566406 C 214.691406 198.566406 214.238281 198.511719 213.792969 198.402344 C 213.34375 198.292969 212.917969 198.132812 212.507812 197.921875 C 212.101562 197.707031 211.722656 197.449219 211.378906 197.144531 C 211.03125 196.839844 210.730469 196.5 210.464844 196.121094 C 210.203125 195.742188 209.988281 195.339844 209.824219 194.910156 C 209.660156 194.480469 209.546875 194.039062 209.492188 193.582031 C 209.433594 193.125 209.429688 192.667969 209.484375 192.210938 C 209.535156 191.753906 209.644531 191.308594 209.804688 190.878906 L 212.980469 182.316406 C 215.527344 175.449219 215.132812 168.253906 211.835938 161.5 L 209.398438 156.515625 C 203.867188 145.203125 204.125 132.789062 210.125 121.597656 C 210.304688 121.277344 210.519531 120.976562 210.757812 120.699219 C 211 120.417969 211.265625 120.164062 211.554688 119.9375 C 211.84375 119.707031 212.152344 119.511719 212.480469 119.339844 C 212.808594 119.171875 213.148438 119.039062 213.503906 118.9375 C 213.859375 118.832031 214.21875 118.765625 214.585938 118.734375 C 214.953125 118.703125 215.320312 118.707031 215.6875 118.746094 C 216.054688 118.785156 216.414062 118.855469 216.765625 118.964844 C 217.117188 119.074219 217.457031 119.214844 217.78125 119.390625 C 218.105469 119.5625 218.410156 119.769531 218.695312 120 C 218.980469 120.234375 219.242188 120.492188 219.476562 120.777344 C 219.710938 121.0625 219.917969 121.363281 220.09375 121.6875 C 220.269531 122.011719 220.414062 122.347656 220.527344 122.699219 C 220.636719 123.050781 220.714844 123.410156 220.753906 123.777344 C 220.796875 124.144531 220.800781 124.511719 220.773438 124.878906 C 220.742188 125.246094 220.679688 125.605469 220.578125 125.960938 C 220.480469 126.316406 220.347656 126.660156 220.179688 126.988281 C 215.890625 134.972656 215.71875 143.449219 219.648438 151.503906 L 222.089844 156.492188 C 226.789062 166.117188 227.339844 176.421875 223.675781 186.285156 L 220.5 194.84375 C 220.296875 195.390625 220.019531 195.894531 219.664062 196.355469 C 219.304688 196.816406 218.886719 197.210938 218.410156 197.542969 C 217.933594 197.878906 217.414062 198.128906 216.859375 198.304688 C 216.304688 198.480469 215.734375 198.566406 215.152344 198.566406 Z M 215.152344 198.566406 " fill-opacity="1" fill-rule="nonzero"/><path fill="#c19d52" d="M 157.570312 198.566406 C 157.109375 198.566406 156.65625 198.511719 156.210938 198.402344 C 155.761719 198.292969 155.335938 198.132812 154.929688 197.917969 C 154.519531 197.707031 154.144531 197.445312 153.800781 197.144531 C 153.453125 196.839844 153.148438 196.496094 152.886719 196.121094 C 152.625 195.742188 152.410156 195.339844 152.246094 194.910156 C 152.082031 194.480469 151.96875 194.035156 151.914062 193.578125 C 151.855469 193.125 151.851562 192.667969 151.90625 192.210938 C 151.957031 191.753906 152.066406 191.308594 152.226562 190.878906 L 155.402344 182.316406 C 157.949219 175.449219 157.554688 168.253906 154.257812 161.5 L 151.824219 156.515625 C 146.292969 145.203125 146.550781 132.789062 152.550781 121.597656 C 152.722656 121.257812 152.925781 120.9375 153.160156 120.636719 C 153.394531 120.339844 153.660156 120.066406 153.949219 119.820312 C 154.238281 119.570312 154.550781 119.355469 154.882812 119.171875 C 155.214844 118.988281 155.566406 118.839844 155.925781 118.722656 C 156.289062 118.609375 156.660156 118.53125 157.039062 118.492188 C 157.417969 118.449219 157.796875 118.449219 158.175781 118.484375 C 158.554688 118.519531 158.929688 118.589844 159.292969 118.699219 C 159.65625 118.8125 160.007812 118.957031 160.34375 119.136719 C 160.679688 119.316406 160.992188 119.527344 161.285156 119.769531 C 161.578125 120.011719 161.847656 120.28125 162.085938 120.578125 C 162.324219 120.875 162.53125 121.191406 162.707031 121.527344 C 162.882812 121.867188 163.023438 122.21875 163.128906 122.585938 C 163.234375 122.949219 163.304688 123.324219 163.335938 123.703125 C 163.367188 124.082031 163.359375 124.460938 163.3125 124.839844 C 163.269531 125.21875 163.1875 125.585938 163.066406 125.949219 C 162.949219 126.3125 162.796875 126.65625 162.605469 126.988281 C 158.316406 134.972656 158.144531 143.449219 162.078125 151.503906 L 164.515625 156.492188 C 169.195312 166.117188 169.765625 176.421875 166.101562 186.285156 L 162.925781 194.84375 C 162.722656 195.390625 162.445312 195.894531 162.085938 196.355469 C 161.730469 196.816406 161.3125 197.214844 160.832031 197.546875 C 160.355469 197.878906 159.835938 198.132812 159.28125 198.304688 C 158.722656 198.480469 158.152344 198.566406 157.570312 198.566406 Z M 157.570312 198.566406 " fill-opacity="1" fill-rule="nonzero"/><path fill="#c19d52" d="M 186.183594 206.015625 C 185.722656 206.015625 185.269531 205.960938 184.824219 205.851562 C 184.378906 205.742188 183.949219 205.578125 183.542969 205.367188 C 183.136719 205.152344 182.757812 204.894531 182.414062 204.589844 C 182.070312 204.285156 181.765625 203.945312 181.503906 203.566406 C 181.242188 203.1875 181.027344 202.785156 180.863281 202.355469 C 180.695312 201.925781 180.585938 201.484375 180.527344 201.027344 C 180.46875 200.570312 180.464844 200.113281 180.519531 199.65625 C 180.570312 199.199219 180.675781 198.757812 180.835938 198.324219 L 184.96875 187.195312 C 188.445312 177.8125 187.914062 167.988281 183.40625 158.777344 L 180.234375 152.289062 C 173.292969 138.074219 173.601562 122.507812 181.148438 108.449219 C 181.324219 108.121094 181.53125 107.808594 181.769531 107.519531 C 182.007812 107.226562 182.273438 106.964844 182.5625 106.726562 C 182.851562 106.488281 183.164062 106.277344 183.492188 106.101562 C 183.824219 105.925781 184.171875 105.78125 184.53125 105.671875 C 184.890625 105.5625 185.253906 105.492188 185.628906 105.453125 C 186.003906 105.417969 186.375 105.417969 186.75 105.453125 C 187.125 105.492188 187.488281 105.5625 187.847656 105.671875 C 188.207031 105.78125 188.554688 105.925781 188.886719 106.101562 C 189.214844 106.277344 189.527344 106.488281 189.816406 106.726562 C 190.105469 106.964844 190.371094 107.226562 190.609375 107.519531 C 190.847656 107.808594 191.054688 108.121094 191.230469 108.449219 C 191.40625 108.78125 191.550781 109.128906 191.660156 109.488281 C 191.769531 109.847656 191.839844 110.214844 191.875 110.585938 C 191.914062 110.960938 191.914062 111.335938 191.875 111.707031 C 191.835938 112.082031 191.765625 112.449219 191.65625 112.808594 C 191.546875 113.167969 191.402344 113.511719 191.222656 113.84375 C 185.371094 124.734375 185.136719 136.296875 190.507812 147.28125 L 193.679688 153.773438 C 199.578125 165.863281 200.269531 178.789062 195.675781 191.167969 L 191.542969 202.296875 C 191.339844 202.84375 191.0625 203.347656 190.703125 203.808594 C 190.347656 204.269531 189.929688 204.667969 189.449219 205 C 188.96875 205.332031 188.453125 205.585938 187.894531 205.757812 C 187.335938 205.933594 186.765625 206.019531 186.183594 206.015625 Z M 186.183594 206.015625 " fill-opacity="1" fill-rule="nonzero"/><path fill="#c19d52" d="M 187.484375 242.945312 C 141.453125 242.945312 105.378906 222.558594 105.378906 196.523438 C 105.378906 183.859375 113.921875 172.113281 129.433594 163.453125 C 129.761719 163.261719 130.105469 163.101562 130.464844 162.976562 C 130.824219 162.851562 131.191406 162.765625 131.570312 162.710938 C 131.945312 162.660156 132.324219 162.648438 132.703125 162.671875 C 133.085938 162.699219 133.457031 162.757812 133.824219 162.859375 C 134.191406 162.957031 134.546875 163.09375 134.886719 163.261719 C 135.226562 163.433594 135.546875 163.636719 135.847656 163.871094 C 136.148438 164.101562 136.421875 164.363281 136.667969 164.652344 C 136.917969 164.941406 137.132812 165.253906 137.320312 165.585938 C 137.503906 165.917969 137.65625 166.265625 137.769531 166.628906 C 137.886719 166.992188 137.964844 167.359375 138.007812 167.738281 C 138.050781 168.117188 138.054688 168.496094 138.019531 168.875 C 137.988281 169.253906 137.914062 169.625 137.808594 169.992188 C 137.699219 170.355469 137.554688 170.707031 137.378906 171.042969 C 137.199219 171.378906 136.988281 171.695312 136.746094 171.988281 C 136.507812 172.28125 136.238281 172.550781 135.941406 172.789062 C 135.648438 173.03125 135.332031 173.238281 134.996094 173.417969 C 123.253906 179.96875 116.789062 188.179688 116.789062 196.523438 C 116.789062 215.496094 149.167969 231.527344 187.484375 231.527344 C 225.796875 231.527344 258.179688 215.496094 258.179688 196.523438 C 258.179688 188.179688 251.714844 179.96875 239.972656 173.417969 C 239.652344 173.230469 239.351562 173.015625 239.074219 172.769531 C 238.796875 172.527344 238.542969 172.257812 238.316406 171.964844 C 238.089844 171.671875 237.894531 171.355469 237.730469 171.023438 C 237.5625 170.691406 237.433594 170.347656 237.335938 169.992188 C 237.234375 169.632812 237.171875 169.269531 237.144531 168.898438 C 237.117188 168.53125 237.128906 168.160156 237.171875 167.792969 C 237.21875 167.425781 237.296875 167.0625 237.410156 166.710938 C 237.527344 166.359375 237.675781 166.019531 237.855469 165.695312 C 238.035156 165.375 238.246094 165.070312 238.488281 164.789062 C 238.726562 164.503906 238.992188 164.246094 239.28125 164.015625 C 239.570312 163.785156 239.882812 163.585938 240.210938 163.414062 C 240.539062 163.242188 240.882812 163.105469 241.238281 163.003906 C 241.59375 162.898438 241.957031 162.828125 242.328125 162.796875 C 242.695312 162.761719 243.066406 162.765625 243.433594 162.804688 C 243.804688 162.84375 244.164062 162.917969 244.519531 163.027344 C 244.875 163.136719 245.214844 163.277344 245.539062 163.453125 C 261.046875 172.113281 269.589844 183.859375 269.589844 196.523438 C 269.589844 222.558594 233.527344 242.945312 187.484375 242.945312 Z M 187.484375 242.945312 " fill-opacity="1" fill-rule="nonzero"/><g clip-path="url(#2f306c1173)"><path fill="#c19d52" d="M 54.234375 58.539062 L 8.789062 58.539062 C 8.421875 58.527344 8.058594 58.484375 7.695312 58.402344 C 7.335938 58.324219 6.988281 58.210938 6.652344 58.0625 C 6.3125 57.914062 5.992188 57.734375 5.691406 57.527344 C 5.386719 57.316406 5.105469 57.078125 4.851562 56.816406 C 4.59375 56.550781 4.363281 56.265625 4.160156 55.957031 C 3.960938 55.648438 3.789062 55.324219 3.652344 54.984375 C 3.511719 54.640625 3.40625 54.289062 3.335938 53.929688 C 3.265625 53.566406 3.230469 53.203125 3.230469 52.832031 C 3.230469 52.464844 3.265625 52.101562 3.335938 51.738281 C 3.40625 51.375 3.511719 51.023438 3.652344 50.683594 C 3.789062 50.34375 3.960938 50.019531 4.160156 49.710938 C 4.363281 49.402344 4.59375 49.113281 4.851562 48.851562 C 5.105469 48.585938 5.386719 48.351562 5.691406 48.140625 C 5.992188 47.929688 6.3125 47.753906 6.652344 47.605469 C 6.988281 47.457031 7.335938 47.34375 7.695312 47.261719 C 8.058594 47.183594 8.421875 47.136719 8.789062 47.128906 L 54.234375 47.128906 C 54.617188 47.117188 54.992188 47.144531 55.367188 47.210938 C 55.746094 47.277344 56.109375 47.378906 56.464844 47.519531 C 56.820312 47.65625 57.15625 47.832031 57.476562 48.035156 C 57.796875 48.242188 58.09375 48.480469 58.367188 48.746094 C 58.640625 49.011719 58.882812 49.300781 59.097656 49.617188 C 59.3125 49.929688 59.496094 50.265625 59.640625 50.613281 C 59.789062 50.964844 59.902344 51.328125 59.976562 51.703125 C 60.054688 52.074219 60.089844 52.453125 60.089844 52.832031 C 60.089844 53.214844 60.054688 53.589844 59.976562 53.964844 C 59.902344 54.339844 59.789062 54.699219 59.640625 55.050781 C 59.496094 55.402344 59.3125 55.734375 59.097656 56.050781 C 58.882812 56.363281 58.640625 56.65625 58.367188 56.921875 C 58.09375 57.1875 57.796875 57.421875 57.476562 57.628906 C 57.15625 57.835938 56.820312 58.007812 56.464844 58.148438 C 56.109375 58.285156 55.746094 58.390625 55.371094 58.453125 C 54.992188 58.519531 54.617188 58.546875 54.234375 58.539062 Z M 54.234375 58.539062 " fill-opacity="1" fill-rule="nonzero"/></g><path fill="#c19d52" d="M 366.179688 58.539062 L 320.734375 58.539062 C 320.355469 58.546875 319.976562 58.519531 319.601562 58.453125 C 319.226562 58.390625 318.859375 58.285156 318.503906 58.148438 C 318.152344 58.007812 317.8125 57.835938 317.492188 57.628906 C 317.171875 57.421875 316.875 57.1875 316.601562 56.921875 C 316.332031 56.65625 316.085938 56.363281 315.871094 56.050781 C 315.65625 55.734375 315.476562 55.402344 315.328125 55.050781 C 315.179688 54.699219 315.066406 54.339844 314.992188 53.964844 C 314.917969 53.589844 314.878906 53.214844 314.878906 52.832031 C 314.878906 52.453125 314.917969 52.074219 314.992188 51.703125 C 315.066406 51.328125 315.179688 50.964844 315.328125 50.613281 C 315.476562 50.265625 315.65625 49.929688 315.871094 49.617188 C 316.085938 49.300781 316.332031 49.011719 316.601562 48.746094 C 316.875 48.480469 317.171875 48.242188 317.492188 48.035156 C 317.8125 47.832031 318.152344 47.65625 318.503906 47.519531 C 318.859375 47.378906 319.226562 47.277344 319.601562 47.210938 C 319.976562 47.144531 320.355469 47.117188 320.734375 47.128906 L 366.179688 47.128906 C 366.550781 47.136719 366.914062 47.183594 367.273438 47.261719 C 367.632812 47.34375 367.980469 47.457031 368.320312 47.605469 C 368.65625 47.753906 368.976562 47.929688 369.28125 48.140625 C 369.582031 48.351562 369.863281 48.585938 370.121094 48.851562 C 370.375 49.113281 370.605469 49.402344 370.808594 49.710938 C 371.007812 50.019531 371.179688 50.34375 371.320312 50.683594 C 371.457031 51.023438 371.5625 51.375 371.632812 51.738281 C 371.703125 52.101562 371.738281 52.464844 371.738281 52.832031 C 371.738281 53.203125 371.703125 53.566406 371.632812 53.929688 C 371.5625 54.289062 371.457031 54.640625 371.320312 54.984375 C 371.179688 55.324219 371.007812 55.648438 370.808594 55.957031 C 370.605469 56.265625 370.375 56.550781 370.121094 56.816406 C 369.863281 57.078125 369.582031 57.316406 369.28125 57.527344 C 368.976562 57.734375 368.65625 57.914062 368.320312 58.0625 C 367.980469 58.210938 367.632812 58.324219 367.273438 58.402344 C 366.914062 58.484375 366.550781 58.527344 366.179688 58.539062 Z M 366.179688 58.539062 " fill-opacity="1" fill-rule="nonzero"/><g clip-path="url(#a2b60348bd)"><path fill="#c19d52" d="M 310.59375 342.277344 L 208.464844 342.277344 C 207.746094 342.273438 207.039062 342.171875 206.34375 341.976562 C 205.652344 341.777344 205 341.488281 204.386719 341.109375 C 203.773438 340.730469 203.222656 340.277344 202.734375 339.746094 C 202.246094 339.214844 201.839844 338.628906 201.515625 337.984375 L 187.472656 310.546875 L 173.457031 337.964844 C 173.132812 338.613281 172.726562 339.203125 172.238281 339.738281 C 171.75 340.273438 171.199219 340.730469 170.582031 341.113281 C 169.96875 341.496094 169.3125 341.785156 168.617188 341.984375 C 167.921875 342.1875 167.210938 342.289062 166.488281 342.292969 L 64.394531 342.292969 C 57.402344 342.292969 51.71875 336.234375 51.71875 328.789062 L 51.71875 42.214844 C 51.71875 41.585938 51.78125 40.964844 51.90625 40.347656 C 52.027344 39.734375 52.210938 39.136719 52.449219 38.558594 C 52.691406 37.976562 52.984375 37.425781 53.332031 36.90625 C 53.683594 36.382812 54.078125 35.902344 54.519531 35.457031 C 54.964844 35.015625 55.449219 34.617188 55.96875 34.269531 C 56.492188 33.921875 57.042969 33.625 57.621094 33.386719 C 58.199219 33.144531 58.796875 32.964844 59.414062 32.839844 C 60.027344 32.71875 60.648438 32.65625 61.277344 32.65625 L 313.714844 32.65625 C 314.339844 32.65625 314.960938 32.71875 315.578125 32.839844 C 316.191406 32.964844 316.789062 33.144531 317.367188 33.386719 C 317.949219 33.625 318.5 33.921875 319.019531 34.269531 C 319.542969 34.617188 320.023438 35.015625 320.46875 35.457031 C 320.910156 35.902344 321.308594 36.382812 321.65625 36.90625 C 322.003906 37.425781 322.300781 37.976562 322.539062 38.558594 C 322.78125 39.136719 322.960938 39.734375 323.085938 40.347656 C 323.207031 40.964844 323.269531 41.585938 323.269531 42.214844 L 323.269531 328.773438 C 323.25 336.21875 317.566406 342.277344 310.59375 342.277344 Z M 210.730469 330.867188 L 310.59375 330.867188 C 311.109375 330.867188 311.855469 330.050781 311.855469 328.773438 L 311.855469 44.0625 L 63.128906 44.0625 L 63.128906 328.769531 C 63.128906 330.027344 63.910156 330.863281 64.394531 330.863281 L 164.257812 330.863281 L 179.558594 300.929688 C 179.921875 300.191406 180.378906 299.515625 180.929688 298.90625 C 181.484375 298.292969 182.109375 297.769531 182.804688 297.335938 C 183.503906 296.898438 184.25 296.566406 185.042969 296.339844 C 185.832031 296.113281 186.640625 296 187.464844 296 C 188.285156 296 189.09375 296.113281 189.886719 296.339844 C 190.675781 296.566406 191.421875 296.898438 192.121094 297.335938 C 192.820312 297.769531 193.445312 298.292969 193.996094 298.90625 C 194.546875 299.515625 195.003906 300.191406 195.367188 300.929688 Z M 313.714844 44.0625 Z M 313.714844 44.0625 " fill-opacity="1" fill-rule="nonzero"/></g></svg>